:FULLY-SPECIFIED
:FORCE-ALL-JOINTS-BE-3DOF
:DEGREES
2548
root 4.00662 13.7777 -23.7559 1023.13 87.256 -58.5643
lfemur -36.4031 2.91396 -14.4123
ltibia 89.4177 0 0
lfoot -25.379 27.6865 0
ltoes -39.7066 0 0
rfemur -55.2296 -18.1257 6.26094
rtibia 56.2243 0 0
rfoot 4.83386 5.63199 0
rtoes 6.57197 0 0
lowerback 17.3068 -0.447862 -3.48381
upperback -0.470534 -0.928462 3.13739
thorax -10.1631 -0.13734 5.66828
lowerneck 5.29663 -14.3948 -15.2953
upperneck -0.188615 -20.1585 14.8699
head 2.16491 -10.2349 6.25361
lclavicle 9.2488e-15 -9.89649e-15 0
lhumerus -48.759 -46.8268 113.222
lradius 105.478 0 0
lwrist 79.659 0 0
lhand 6.47408 400.38 0
lfingers 7.12502 0 0
lthumb 31.7753 -652.367 0
rclavicle 9.2488e-15 -9.89649e-15 0
rhumerus 10.2095 -12.2055 -59.2949
rradius 73.8405 0 0
rwrist 15.8262 0 0
rhand -35.6626 -405.822 0
rfingers 7.12502 0 0
rthumb -8.78407 284.392 0
2549
root 3.95798 13.8146 -23.9129 1025.78 86.761 -55.9145
lfemur -36.2793 2.31329 -14.6669
ltibia 89.2831 0 0
lfoot -25.1819 27.8257 0
ltoes -39.8591 0 0
rfemur -55.239 -17.7157 6.36174
rtibia 55.6743 0 0
rfoot 4.69081 5.46958 0
rtoes 6.27228 0 0
lowerback 17.3634 -0.411754 -3.52471
upperback -0.433407 -0.893112 3.12394
thorax -10.1596 -0.119977 5.66844
lowerneck 5.29137 -14.3916 -15.295
upperneck -0.218043 -20.1529 14.9117
head 2.16089 -10.2324 6.2668
lclavicle 8.53556e-15 -9.58918e-15 0
lhumerus -48.3487 -46.9672 113.042
lradius 105.314 0 0
lwrist 79.464 0 0
lhand 6.33792 400.386 0
lfingers 7.12502 0 0
lthumb 31.6458 -652.333 0
rclavicle 8.53556e-15 -9.58918e-15 0
rhumerus 10.5385 -11.6011 -59.0751
rradius 74.0117 0 0
rwrist 14.9114 0 0
rhand -35.3222 -405.498 0
rfingers 7.12502 0 0
rthumb -8.45545 284.709 0
2550
root 3.90935 13.8514 -24.07 1026.94 86.4236 -54.7615
lfemur -36.1955 2.03392 -14.8072
ltibia 89.1825 0 0
lfoot -25.0961 27.9014 0
ltoes -39.9639 0 0
rfemur -55.2572 -17.5337 6.45204
rtibia 55.3768 0 0
rfoot 4.55725 5.3996 0
rtoes 6.08931 0 0
lowerback 17.3927 -0.389568 -3.56186
upperback -0.416271 -0.873603 3.11751
thorax -10.1602 -0.109421 5.67809
lowerneck 5.28537 -14.3919 -15.2958
upperneck -0.227157 -20.1528 14.9318
head 2.16148 -10.2323 6.27249
lclavicle 7.85579e-15 -9.31665e-15 0
lhumerus -48.1323 -47.0156 112.945
lradius 105.229 0 0
lwrist 79.3673 0 0
lhand 6.27995 400.393 0
lfingers 7.12502 0 0
lthumb 31.5906 -652.315 0
rclavicle 7.85579e-15 -9.31665e-15 0
rhumerus 10.7209 -11.2571 -58.9681
rradius 74.1568 0 0
rwrist 14.4595 0 0
rhand -35.1324 -405.309 0
rfingers 7.12502 0 0
rthumb -8.27218 284.896 0
2551
root 3.86071 13.8882 -24.227 1027.09 86.1155 -54.6104
lfemur -36.1198 1.95834 -14.8897
ltibia 89.0783 0 0
lfoot -25.0846 27.9441 0
ltoes -40.0607 0 0
rfemur -55.29 -17.5023 6.56433
rtibia 55.2119 0 0
rfoot 4.38548 5.39194 0
rtoes 5.95162 0 0
lowerback 17.4068 -0.372654 -3.6086
upperback -0.4119 -0.862117 3.11541
thorax -10.1648 -0.101549 5.70008
lowerneck 5.27654 -14.3957 -15.2979
upperneck -0.22037 -20.1578 14.9385
head 2.16661 -10.2345 6.27315
lclavicle 6.96759e-15 -8.98066e-15 0
lhumerus -48.0221 -46.9946 112.892
lradius 105.187 0 0
lwrist 79.329 0 0
lhand 6.27513 400.402 0
lfingers 7.12502 0 0
lthumb 31.5859 -652.306 0
rclavicle 6.96759e-15 -8.98066e-15 0
rhumerus 10.8296 -11.0367 -58.9295
rradius 74.3287 0 0
rwrist 14.2838 0 0
rhand -35.0173 -405.179 0
rfingers 7.12502 0 0
rthumb -8.16103 285.025 0
